# xmcd
#
# Track frame offsets:
#	150
#	14478
#	26437
#	41599
#	59748
#	76605
#	90453
#	102820
#	118279
#	131070
#	149861
#	167798
#	186608
#	200629
#	218053
#	241302
#	254617
#	267472
#
# Disc length: 3723 seconds
#
# Revision: 0
# Processed by: cddbd v1.5.2PL0 Copyright (c) Steve Scherf et al.
# Submitted via: EasyCDDAExtractor 16.0.6.1
#
DISCID=160e8912
DTITLE=Συλλογικός δίσκος - Τα μελοποιημένα 18
DYEAR=2010
DGENRE=Έντεχνη
TTITLE0=Ζωγράφος Γιώργος - Τα γιορτινά σου φόρεσε [Ν. Μαυρουδής-Γ. Κακουλίδης]
TTITLE1=Μοσχολιού Βίκυ - Ναύτης βγήκε στη στεριά [Γ. Σπανός-Μ. Ελευθερίου]
TTITLE2=Μητσιάς Μανώλης-Σπυροπούλου Μαρία - Της θάλασσας τα μίγια [Θ. Μικρούτσ
TTITLE2=ικος-Άλκης Αλκαίος]
TTITLE3=Στόκας Μπάμπης - Έβαλε ο Θεός σημάδι [Στ. Ξαρχάκος-Ν. Γκάτσος]
TTITLE4=Αρβανιτάκη Ελευθερία - Τσιγάρο εγώ στο στόμα μου δε έβαλα [Ν. Ξυδάκης-
TTITLE4=Θοδ. Γκόνης]
TTITLE5=Μπιρμπίλη Σούλα - Μαρίνα [Μ. Θεοδωράκης-Οδ. Ελύτης]
TTITLE6=Αστεριάδη Πόπη-Παππάς Λάκης - Δεν είν' τ' άσπρο κρασί μας [Λάκης Παππά
TTITLE6=ς-Δημ. Ιατρόπουλος]
TTITLE7=Λουδοβίκος των Ανωγείων - Ο όρκος της Αρετούσας [Λουδοβίκος Ανωγείων-Β
TTITLE7=ιτζ. Κορνάρος]
TTITLE8=Μπέλλου Σωτηρία-χορωδία - Μεταξουργείο [Ηλ. Ανδριόπουλος-Μιχ. Μπουρμπο
TTITLE8=ύλης]
TTITLE9=Βιτάλη Ελένη - Κι αν ο καϋμός [Σπ. Σαμοΐλης-Νίκος Πανδής]
TTITLE10=Γλυκερία - Κάποτε θά 'ρθουν [Μ. Θεοδωράκης-Λ. Παπαδόπουλος]
TTITLE11=Φαραντούρη Μαρία-Χριστογιαννόπουλος Τ. - Ανέβασε τους φλόκους της αυγ
TTITLE11=ής [Μιχ. Γρηγορίου-Ρηνιώ Παπανικόλα]
TTITLE12=Βενετσάνου Νένα - Βασίλεψες αστέρι μου [Μ. Θεοδωράκης-Γ. Ρίτσος]
TTITLE13=Ανοιχτή Θάλασσα - Ερωτικός λόγος [Βαγγ. Μαρκαντώνης-Γ. Σεφέρης]
TTITLE14=Άσιμος Νικόλας - Ουλαλούμ [Νικόλας Άσιμος-Γ. Σκαρίμπας]
TTITLE15=Μούτσης Δήμος-Κηλαηδόνης Λουκιανός - Διαδόσεις [Δ. Μούτσης-Κ. Τριπολί
TTITLE15=της]
TTITLE16=Ξυδούς Μάνος - Γοργόνα [Μάνος Ξυδούς-Χαρ. Χατζηνάκης]
TTITLE17=Χωματά Καίτη-Αρλέτα - Διάλογος Ερωφίλης-Νένας [Ν. Μαμαγκάκης-Γεώργιος
TTITLE17=Χορτάτζης]
EXTD=
EXTT0=
EXTT1=
EXTT2=
EXTT3=
EXTT4=
EXTT5=
EXTT6=
EXTT7=
EXTT8=
EXTT9=
EXTT10=
EXTT11=
EXTT12=
EXTT13=
EXTT14=
EXTT15=
EXTT16=
EXTT17=
PLAYORDER=
